<svg xmlns="http://www.w3.org/2000/svg" width="240" height="240" viewBox="0 0 240 240" version="1.1"><path d="M 60 172.662 C 60 205.444, 60.597 209.629, 66.252 216.490 L 69.146 220 120 220 L 170.854 220 173.748 216.490 C 179.403 209.629, 180 205.444, 180 172.662 L 180 143 120 143 L 60 143 60 172.662" stroke="none" fill="#db5415" fill-rule="evenodd"/><path d="M 97.923 17.923 C 95.243 20.603, 95 21.435, 95 27.923 L 95 35 82.750 35.004 C 68.978 35.008, 65.710 36.148, 61.995 42.241 C 60.084 45.375, 60.007 47.369, 60.004 94.250 L 60 143 120 143 L 180 143 179.996 94.250 C 179.993 47.369, 179.916 45.375, 178.005 42.241 C 174.290 36.148, 171.022 35.008, 157.250 35.004 L 145 35 145 27.923 C 145 21.435, 144.757 20.603, 142.077 17.923 L 139.154 15 120 15 L 100.846 15 97.923 17.923" stroke="none" fill="#c4cccc" fill-rule="evenodd"/></svg>