<svg xmlns="http://www.w3.org/2000/svg" width="240" height="240" viewBox="0 0 240 240" version="1.1"><path d="M 60 189.032 C 60 210.378, 60.590 213.060, 66.238 217.368 L 69.689 220 120 220 L 170.311 220 173.762 217.368 C 179.410 213.060, 180 210.378, 180 189.032 L 180 170 120 170 L 60 170 60 189.032" stroke="none" fill="#e30d0d" fill-rule="evenodd"/><path d="M 97.923 17.923 C 95.243 20.603, 95 21.435, 95 27.923 L 95 35 82.750 35.004 C 68.978 35.008, 65.710 36.148, 61.995 42.241 C 60.068 45.401, 60.007 47.398, 60.004 107.750 L 60 170 120 170 L 180 170 179.996 107.750 C 179.993 47.398, 179.932 45.401, 178.005 42.241 C 174.290 36.148, 171.022 35.008, 157.250 35.004 L 145 35 145 27.923 C 145 21.435, 144.757 20.603, 142.077 17.923 L 139.154 15 120 15 L 100.846 15 97.923 17.923" stroke="none" fill="#c4cccc" fill-rule="evenodd"/></svg>