<svg xmlns="http://www.w3.org/2000/svg" width="240" height="240" viewBox="0 0 240 240" version="1.1"><path d="M 60 156.810 L 60 200.621 62.438 206.842 C 63.779 210.264, 65.841 214.625, 67.020 216.532 L 69.163 220 120.039 220 L 170.916 220 173.559 215.490 C 179.352 205.604, 179.393 205.220, 179.768 157.250 L 180.114 113 120.057 113 L 60 113 60 156.810" stroke="none" fill="#4cdb14" fill-rule="evenodd"/><path d="M 97.923 17.923 C 95.243 20.603, 95 21.435, 95 27.923 L 95 35 82.750 35.004 C 68.978 35.008, 65.710 36.148, 61.995 42.241 C 60.116 45.323, 60.007 47.337, 60.004 79.250 L 60 113 120 113 L 180 113 179.996 79.250 C 179.993 47.337, 179.884 45.323, 178.005 42.241 C 174.290 36.148, 171.022 35.008, 157.250 35.004 L 145 35 145 27.923 C 145 21.435, 144.757 20.603, 142.077 17.923 L 139.154 15 120 15 L 100.846 15 97.923 17.923" stroke="none" fill="#c3cbcb" fill-rule="evenodd"/></svg>