<svg xmlns="http://www.w3.org/2000/svg" width="240" height="240" viewBox="0 0 240 240" version="1.1"><path d="" stroke="none" fill="#38c484" fill-rule="evenodd"/><path d="M 97.923 17.923 C 95.243 20.603, 95 21.435, 95 27.923 L 95 35 82.750 35.004 C 68.978 35.008, 65.710 36.148, 61.995 42.241 C 60.054 45.423, 60.007 47.437, 60.007 127.500 C 60.007 207.563, 60.054 209.577, 61.995 212.759 C 63.088 214.552, 65.448 216.912, 67.241 218.005 C 70.377 219.918, 72.367 219.993, 120 219.993 C 167.633 219.993, 169.623 219.918, 172.759 218.005 C 174.552 216.912, 176.912 214.552, 178.005 212.759 C 179.946 209.577, 179.993 207.563, 179.993 127.500 C 179.993 47.437, 179.946 45.423, 178.005 42.241 C 174.290 36.148, 171.022 35.008, 157.250 35.004 L 145 35 145 27.923 C 145 21.435, 144.757 20.603, 142.077 17.923 L 139.154 15 120 15 L 100.846 15 97.923 17.923" stroke="none" fill="#34c484" fill-rule="evenodd"/></svg>